<svg xmlns="http://www.w3.org/2000/svg" width="718" height="347" viewBox="0 0 718 347" version="1.1"><path d="M 445.479 91.801 C 442.718 92.756, 439.084 94.516, 437.404 95.712 C 435.725 96.908, 433.078 99.723, 431.523 101.967 C 429.967 104.212, 428.088 108.386, 427.347 111.242 C 426.325 115.183, 426 126.229, 426 157.034 C 426 181.949, 426.420 199.925, 427.087 203.566 C 427.684 206.830, 429.357 211.686, 430.805 214.359 C 432.252 217.031, 435.215 220.740, 437.389 222.601 C 439.563 224.462, 443.852 226.975, 446.921 228.185 L 452.500 230.386 463.500 230.443 L 474.500 230.500 478.763 228.223 C 481.108 226.970, 484.383 224.074, 486.040 221.787 C 487.697 219.499, 489.740 215.261, 490.581 212.368 L 492.110 207.109 491.805 160.750 L 491.500 114.391 487.670 106.644 C 484.904 101.050, 482.705 98.074, 479.756 95.938 C 477.510 94.311, 473.415 92.310, 470.655 91.490 C 467.895 90.671, 462.231 90.015, 458.068 90.033 C 453.560 90.052, 448.470 90.767, 445.479 91.801 M 61 176.500 C 61 222.975, 61.241 261, 61.536 261 C 61.831 261, 65.881 260.045, 70.536 258.877 L 79 256.754 79 232.541 C 79 219.223, 79.313 191.941, 79.695 171.914 L 80.389 135.500 82.567 145 C 83.766 150.225, 87.097 165.075, 89.971 178 C 92.845 190.925, 96.300 206.225, 97.649 212 C 98.998 217.775, 101.445 228.779, 103.087 236.452 C 104.728 244.126, 106.203 250.536, 106.363 250.697 C 106.524 250.857, 111.458 250.026, 117.328 248.850 L 128 246.711 128.016 181.606 C 128.025 145.798, 128.308 110.987, 128.646 104.250 L 129.259 92 119.629 92 L 110 92 110 139.500 C 110 166.534, 109.617 187, 109.111 187 C 108.623 187, 107.918 185.313, 107.545 183.250 C 107.173 181.188, 105.143 171.850, 103.034 162.500 C 100.925 153.150, 96.578 133.463, 93.373 118.750 L 87.546 92 74.273 92 L 61 92 61 176.500 M 145.568 167.585 C 145.166 209.157, 144.986 243.310, 145.168 243.481 C 145.351 243.652, 153.018 242.523, 162.208 240.972 C 171.397 239.421, 184.559 237.367, 191.458 236.408 L 204 234.663 204 224.832 L 204 215 202.250 215.029 C 201.287 215.045, 192.917 216.089, 183.650 217.349 L 166.799 219.640 166.255 218.222 C 165.956 217.442, 165.950 207.149, 166.242 195.349 C 166.534 183.549, 166.953 173.713, 167.174 173.493 C 167.395 173.272, 173.858 172.561, 181.538 171.913 C 189.217 171.265, 195.657 170.599, 195.850 170.434 C 196.042 170.269, 196.440 165.792, 196.734 160.486 L 197.268 150.839 185.384 151.465 C 178.848 151.809, 172.028 152.317, 170.229 152.594 L 166.958 153.098 167.229 132.799 L 167.500 112.500 186 112 L 204.500 111.500 204.786 101.750 L 205.072 92 175.686 92 L 146.300 92 145.568 167.585 M 212.989 97.750 C 212.983 100.912, 212.699 105.188, 212.358 107.250 L 211.738 111 223.408 111 L 235.077 111 234.955 170.706 L 234.833 230.413 239.166 230.123 C 241.550 229.964, 246.200 229.534, 249.500 229.167 L 255.500 228.500 255.758 169.885 L 256.016 111.270 260.648 110.635 C 263.195 110.286, 268.366 110, 272.140 110 L 279 110 279.011 104.750 C 279.017 101.862, 279.301 97.813, 279.642 95.750 L 280.262 92 246.631 92 L 213 92 212.989 97.750 M 290.998 114.750 C 290.997 127.263, 290.698 157.454, 290.334 181.842 L 289.672 226.184 300.086 225.466 C 305.814 225.072, 310.695 224.573, 310.933 224.359 C 311.171 224.144, 311.538 211.488, 311.749 196.234 C 311.960 180.980, 312.313 167.938, 312.535 167.250 C 312.830 166.331, 316.525 166, 326.469 166 L 340 166 340 157 L 340 148 326 148 L 312 148 312 129 L 312 110 330 110 L 348 110 348 101 L 348 92 319.500 92 L 291 92 290.998 114.750 M 359 157.878 L 359 223.756 379.750 224.403 C 391.163 224.759, 404.212 225.317, 408.750 225.644 L 417 226.237 417 216.719 L 417 207.201 399 206.473 L 381 205.745 381 148.872 L 381 92 370 92 L 359 92 359 157.878 M 506.483 149.750 L 507.156 207.500 508.557 213.249 C 509.327 216.410, 510.840 220.726, 511.918 222.840 C 512.997 224.954, 515.998 228.772, 518.587 231.325 C 521.549 234.244, 525.375 236.745, 528.898 238.063 C 531.979 239.216, 536.947 240.612, 539.938 241.165 C 542.929 241.718, 547.418 241.864, 549.914 241.490 C 552.411 241.116, 556.108 239.965, 558.130 238.934 C 560.152 237.902, 563.153 235.425, 564.798 233.429 C 566.443 231.433, 568.496 227.483, 569.359 224.650 C 570.223 221.818, 570.982 216.800, 571.046 213.500 C 571.111 210.200, 571.127 181.512, 571.082 149.750 L 571 92 560.750 92 L 550.500 92 550.500 154.084 L 550.500 216.168 547.694 218.584 C 546.056 219.995, 543.622 221, 541.845 221 C 540.172 221, 537.211 220.245, 535.266 219.322 C 532.845 218.173, 531.165 216.360, 529.936 213.572 L 528.142 209.500 527.900 150.750 L 527.658 92 516.735 92 L 505.811 92 506.483 149.750 M 583 93.001 C 583 93.552, 586.640 105.589, 591.089 119.751 C 595.538 133.913, 600.853 150.938, 602.901 157.585 L 606.624 169.670 594.379 207.569 C 587.645 228.414, 582.265 245.598, 582.424 245.757 C 582.582 245.916, 586.863 246.791, 591.936 247.703 C 598.835 248.943, 601.340 249.068, 601.876 248.200 C 602.271 247.562, 605.898 235.893, 609.936 222.270 C 613.975 208.646, 617.442 197.313, 617.640 197.083 C 617.838 196.854, 618.228 196.894, 618.506 197.172 C 618.784 197.450, 619.853 200.788, 620.882 204.589 C 621.911 208.390, 625.315 221.175, 628.448 233 C 631.581 244.825, 634.674 255.001, 635.322 255.614 C 635.970 256.227, 640.735 257.693, 645.910 258.871 C 651.086 260.049, 655.538 260.795, 655.805 260.528 C 656.071 260.262, 654.611 254.072, 652.561 246.772 C 650.510 239.472, 647.018 226.975, 644.801 219 C 642.583 211.025, 638.796 197.593, 636.385 189.150 C 633.973 180.708, 632 173.102, 632 172.249 C 632 171.396, 634.279 163.004, 637.064 153.599 C 639.849 144.195, 643.660 131.550, 645.532 125.500 C 647.405 119.450, 650.298 109.775, 651.962 104 C 653.626 98.225, 654.990 93.146, 654.994 92.714 C 654.997 92.281, 650.639 92.056, 645.310 92.214 L 635.619 92.500 632.406 103.500 C 630.638 109.550, 627.280 121.138, 624.943 129.250 C 622.606 137.363, 620.413 144, 620.070 144 C 619.727 144, 616.121 132.300, 612.058 118 L 604.669 92 593.834 92 C 587.271 92, 583 92.395, 583 93.001 M 452.365 110.169 C 451.190 110.738, 449.615 112.352, 448.865 113.756 L 447.500 116.309 447.500 159.404 L 447.500 202.500 449.267 205.733 C 450.239 207.511, 452.354 209.649, 453.967 210.483 C 455.581 211.317, 458.743 212, 460.996 212 C 463.979 212, 465.739 211.352, 467.479 209.612 C 468.793 208.298, 470.151 205.711, 470.497 203.862 C 470.843 202.013, 470.983 181.825, 470.808 159 L 470.491 117.500 469.051 114.675 C 468.259 113.121, 466.371 111.209, 464.855 110.425 C 463.339 109.641, 460.389 109.030, 458.300 109.068 C 456.210 109.105, 453.539 109.601, 452.365 110.169" stroke="none" fill="#0653f8" fill-rule="evenodd"/></svg>